PathFileType	4	(X/Y/Z)	..\data\2014048\dynamic\2014048_C5_02.trc
DataRate	CameraRate	NumFrames	NumMarkers	Units	OrigDataRate	OrigDataStartFrame	OrigNumFrames
100.000000	100.000000	4	52	mm	100.000000	126	144
Frame#	Time	L_IAS			L_IPS			R_IPS			R_IAS			L_FTC			L_FLE			L_FME			L_FAX			L_TTC			L_FAL			L_TAM			L_FCC			L_FM1			L_FM2			L_FM5			R_FTC			R_FLE			R_FME			R_FAX			R_TTC			R_FAL			R_TAM			R_FCC			R_FM1			R_FM2			R_FM5			CV7			TV10			SXS			SJN			L_SIA			L_SRS			L_SAA			L_SAE			L_HLE			L_HME			L_UOA			L_RSP			L_UHE			L_HM2			L_HM5			R_SIA			R_SRS			R_SAA			R_SAE			R_HLE			R_HME			R_UOA			R_RSP			R_UHE			R_HM2			R_HM5			
		X1	Y1	Z1	X2	Y2	Z2	X3	Y3	Z3	X4	Y4	Z4	X5	Y5	Z5	X6	Y6	Z6	X7	Y7	Z7	X8	Y8	Z8	X9	Y9	Z9	X10	Y10	Z10	X11	Y11	Z11	X12	Y12	Z12	X13	Y13	Z13	X14	Y14	Z14	X15	Y15	Z15	X16	Y16	Z16	X17	Y17	Z17	X18	Y18	Z18	X19	Y19	Z19	X20	Y20	Z20	X21	Y21	Z21	X22	Y22	Z22	X23	Y23	Z23	X24	Y24	Z24	X25	Y25	Z25	X26	Y26	Z26	X27	Y27	Z27	X28	Y28	Z28	X29	Y29	Z29	X30	Y30	Z30	X31	Y31	Z31	X32	Y32	Z32	X33	Y33	Z33	X34	Y34	Z34	X35	Y35	Z35	X36	Y36	Z36	X37	Y37	Z37	X38	Y38	Z38	X39	Y39	Z39	X40	Y40	Z40	X41	Y41	Z41	X42	Y42	Z42	X43	Y43	Z43	X44	Y44	Z44	X45	Y45	Z45	X46	Y46	Z46	X47	Y47	Z47	X48	Y48	Z48	X49	Y49	Z49	X50	Y50	Z50	X51	Y51	Z51	X52	Y52	Z52	

127	1.26	657.1822509765626	887.1482543945315	128.479461669922	455.304412841797	938.3125000000002	178.5828552246095	452.7533569335938	942.5458984375002	284.7170410156251	646.7386474609376	886.723571777344	363.0534973144532	584.8114013671876	869.5518188476565	60.15084457397469	731.6576538085939	464.7482910156251	100.6103286743165	754.1594238281251	469.0239868164064	227.0921325683595	722.6584472656251	401.8521118164064	98.91439056396496	779.7063598632815	398.3822326660157	152.2125091552736	665.1065063476564	88.18526458740236	144.3186950683595	704.3668823242189	105.1621551513672	222.9609680175783	624.9013061523439	47.20904159545899	207.3944702148439	808.9970703125002	35.78513717651368	189.5356597900392	801.8984375000002	42.34858703613282	143.9109497070314	745.6475219726564	25.13962745666505	106.1782913208009	562.1612548828126	867.2321777343752	435.7375488281252	526.6219482421876	435.3391418457032	366.2312316894532	534.1951293945314	440.7809448242189	235.5603637695314	507.8117065429688	381.6046447753907	367.3938903808595	559.4843750000001	373.5191345214844	308.576629638672	444.0233154296876	58.81348419189455	332.107879638672	458.8075866699219	77.13973999023439	247.407440185547	393.1973876953126	23.53466415405274	284.0309448242189	570.8470458984376	16.89216232299805	256.6334228515626	574.8843994140626	28.06475830078126	310.4247436523439	529.1528930664064	16.41730117797852	354.5325317382814	512.9447021484376	1395.170043945313	228.5306549072267	460.9311828613282	1116.115112304688	230.5909881591798	676.2388916015626	1094.13720703125	238.6028442382814	630.9072265625001	1316.875122070313	237.847625732422	439.7661743164064	1176.37353515625	159.4945526123048	470.5693359375001	1317.915161132813	152.8091888427735	512.6566162109376	1321.834106445313	76.86247253417976	561.0196533203126	1326.801879882813	66.47475433349618	491.5699768066407	1020.243408203125	9.579260826110902	477.278778076172	1014.154296875	91.71964263916023	465.3327026367189	999.7432250976565	48.46583175659187	551.9440917968751	778.5780029296877	29.84956550598152	492.2427062988282	791.353454589844	-21.1829109191894	551.6205444335939	686.6342773437501	28.18736267089851	472.5825805664064	713.8814086914064	-23.29539108276362	446.4814147949219	1176.892333984375	331.082000732422	470.1569519042969	1319.264892578125	321.7664184570314	524.6772460937501	1328.6728515625	395.7849121093752	572.4797363281251	1328.06103515625	410.3883666992189	573.1771240234375	1011.983337402344	483.9246215820314	559.1752319335939	997.3838500976565	404.4747924804689	558.0602416992189	983.448669433594	453.0296936035158	759.4426879882814	842.1065063476565	460.8872985839846	697.7462768554688	813.0225830078127	506.3871765136721	812.7548217773439	770.620788574219	474.6870422363284	728.0407104492188	746.0051269531251	518.7646484375002	
128	1.27	672.0124511718751	885.3483886718752	128.7399749755861	469.5103149414064	935.673767089844	177.5367279052735	466.4987182617188	940.1552734375002	283.4570617675782	659.7739257812501	884.2364501953127	363.3134155273439	599.9559326171876	867.350769042969	59.90584945678719	747.4713134765626	462.9154357910157	101.291831970215	767.6231079101564	466.9268798828126	228.0856170654298	741.6185913085939	399.3287048339845	99.25518035888683	798.2278442382815	398.8471984863282	152.9872283935548	708.7963867187501	82.02223205566408	142.4150848388673	745.4757080078126	101.8843765258789	221.388885498047	671.0499877929689	38.10090255737305	205.1102294921876	855.3545532226565	41.0835189819336	188.7906646728517	848.2321777343752	46.83982467651368	143.0252075195314	794.1080322265627	25.35314178466798	104.8801727294923	574.7576904296876	865.0012817382815	435.511199951172	532.9373779296876	434.2505798339845	365.628631591797	540.7573852539064	439.9490051269532	234.9608612060548	513.2085571289064	380.8492431640626	366.6431579589845	564.8077392578126	371.9619140625001	307.9666442871095	444.5125732421876	59.14656829833986	331.0577392578126	459.6434631347657	76.93748474121095	246.3108367919923	393.6923828125001	24.15618324279786	282.7145385742189	571.2677001953126	16.6036548614502	256.3428649902345	575.1376953125001	28.02322578430176	310.1194152832032	529.1377563476564	16.71555137634278	354.0533752441407	526.7284545898439	1393.079467773438	228.5811767578126	474.581024169922	1114.015625	230.6041259765626	690.1559448242189	1092.222290039063	238.277069091797	644.7064819335939	1314.898071289063	237.558792114258	453.0678710937501	1174.036254882813	160.5271606445313	483.8768310546876	1315.626953125	153.4405517578126	525.4266357421876	1319.474853515625	77.19647979736337	573.6674194335939	1324.499755859375	66.33216094970712	500.6592712402345	1018.465087890625	10.9131345748902	487.1712951660157	1012.670837402344	93.13104248046882	474.4915161132814	999.0917968750002	50.24036026000984	553.2147216796876	775.4240722656252	29.21164131164558	493.4371337890626	790.5795898437502	-20.91848182678217	548.4771728515626	683.2784423828126	27.89387130737312	470.1801757812501	713.9932250976564	-22.72375869750971	460.8797912597657	1174.882446289063	331.9443969726564	484.3010864257813	1317.338012695313	322.4006958007814	539.3584594726564	1326.6826171875	396.0995178222658	587.3114013671876	1326.290649414063	410.1942443847658	592.5972900390625	1010.389465332031	485.2083740234377	578.3052368164064	995.3621826171877	405.9701538085939	578.3778076171876	980.970397949219	454.4024353027345	786.3670654296877	849.4234619140627	458.7734985351565	726.66552734375	816.7845458984377	504.3454589843752	843.4857788085939	780.8697509765627	471.4706726074221	760.5384521484375	751.3103027343751	515.795593261719	
129	1.28	686.9393310546876	883.322204589844	128.8348541259767	483.7671813964845	932.653503417969	176.3100585937501	480.1845397949219	937.440612792969	281.9677734375001	672.8089599609376	881.6082153320315	363.5834960937501	615.1780395507814	864.7142333984377	59.5326690673829	762.4881591796876	460.4891357421876	101.8566894531251	780.3870849609377	463.9800720214845	229.0773925781251	759.6967163085939	396.6289672851564	99.51367187500013	815.9520263671877	398.8175354003907	153.5960388183595	751.4240722656251	77.20708465576173	140.3727111816407	785.4555664062502	99.63072204589847	219.6482238769533	716.2678833007814	30.51489639282227	202.651824951172	900.0066528320315	47.45599746704102	187.9156036376955	892.9761962890627	52.49770736694337	141.9936981201173	841.1755371093752	26.9377613067627	103.4726409912111	587.2520141601564	862.595153808594	435.0970458984377	539.6093139648439	433.1122131347657	364.960174560547	547.8113403320314	439.0240783691407	234.3149566650392	518.9152832031251	380.0662231445313	365.8241271972657	570.4697265625001	370.3537292480469	307.3119506835939	444.9732971191407	59.53152465820314	329.9997558593751	460.5456542968751	76.86842346191408	245.1967926025392	394.1018066406251	24.89440155029298	281.3728637695314	571.7731933593751	16.36988258361817	256.0811767578126	575.4436035156251	28.02536773681641	309.8509216308595	529.1427612304689	17.01973152160645	353.5554504394532	540.6002807617189	1390.717163085938	228.5840454101564	488.2349243164064	1111.6767578125	230.5043792724611	704.0657958984376	1089.808349609375	237.9810333251955	658.6061401367189	1312.601928710938	237.2141418457033	466.4304809570314	1171.427368164063	161.4404754638673	497.2788391113282	1313.078125	154.0144042968751	538.3256835937501	1316.862548828125	77.46590423583993	586.4555664062501	1321.9072265625	66.1482696533204	509.7725830078126	1016.509948730469	12.17642498016364	497.2699279785157	1010.845520019531	94.47607421875007	483.816619873047	998.159362792969	51.94757461547859	554.9503173828126	772.3946533203127	28.29370689392097	494.9877319335939	789.8630371093752	-20.65563392639154	545.8598022460939	680.1934204101564	27.35021400451668	468.3554077148439	714.3027954101564	-22.14621734619135	475.2255249023438	1172.638427734375	332.7251281738282	498.5212402343751	1315.160278320313	322.9875488281251	554.1054077148439	1324.377685546875	396.3835449218752	602.2054443359376	1324.169677734375	409.9869384765627	611.8822631835938	1008.566833496094	486.4902954101564	597.2662963867189	993.0449218750002	407.4739379882814	598.5372924804689	978.3448486328127	455.7741088867189	812.509216308594	856.7230224609377	456.5718383789065	755.0145263671875	820.6817016601565	502.163269042969	873.2605590820314	791.3259277343752	468.0928344726565	792.3461914062501	756.9093627929689	512.6099243164065	
130	1.29	701.9812011718751	881.1239013671877	128.7890014648439	498.1202392578126	929.3340454101565	174.8891601562501	493.8388671875001	934.465515136719	280.2500305175782	685.8838500976564	878.9011840820315	363.8807678222657	630.5222167968751	861.7207031250002	59.02863311767587	776.8648071289065	457.5809020996095	102.2880477905275	792.6489868164065	460.353240966797	230.0393981933595	776.9971313476565	393.8387451171876	99.68846130371107	832.9822387695315	398.3607482910157	154.0561676025392	792.4606933593752	73.66721343994142	138.2607727050782	823.8565063476565	98.29701995849612	217.8168945312502	759.9260253906251	24.42290115356446	200.0947418212892	942.4951782226565	54.55381011962892	187.0374603271486	935.6614990234377	58.97462463378908	140.9427642822267	886.296081542969	29.61318969726563	102.0707855224611	599.6632080078126	860.0808715820315	434.4899291992189	546.6174926757814	431.9580383300782	364.2465209960939	555.3879394531251	438.006561279297	233.6379852294923	524.9149169921876	379.2876281738282	364.9617614746095	576.4570922851564	368.7155456542969	306.641815185547	445.3840637207032	59.9978485107422	328.9932861328126	461.4866027832032	76.98310852050783	244.126190185547	394.3847656250001	25.78625297546387	280.0718994140626	572.3612670898439	16.19556617736817	255.8642883300782	575.8061523437501	28.06676483154298	309.6375122070314	529.1719970703126	17.30293655395508	353.0678100585939	554.5659790039064	1388.132690429688	228.5208129882814	501.9200134277345	1109.14306640625	230.2902069091798	717.9832153320314	1086.9560546875	237.7064056396486	672.6173706054689	1310.033935546875	236.7975311279298	479.8712768554689	1168.599487304688	162.213348388672	510.7855224609376	1310.317749023438	154.5079040527345	551.3712158203126	1314.051025390625	77.65142822265634	599.4064331054689	1319.076049804688	65.90723419189462	518.9240112304689	1014.435546875	13.36571979522712	507.6160583496095	1008.741027832031	95.73922729492195	493.3426513671876	996.9947509765627	53.56452560424813	557.2194213867189	769.5061035156252	27.07675552368172	496.9236145019532	789.2087402343752	-20.3760089874267	543.8906860351564	677.3855590820314	26.52062988281257	467.1768188476564	714.7885742187501	-21.53683662414545	489.5230712890626	1170.218017578125	333.4127197265626	512.8247680664064	1312.781127929688	323.4986267089845	568.9228515625001	1321.825927734375	396.6087646484377	617.1648559570314	1321.762573242188	409.7436523437502	631.0225830078125	1006.56884765625	487.7417907714845	616.0438842773439	990.4830322265627	408.9577636718752	618.5070190429689	975.6291503906252	457.1295166015627	837.8222656250002	863.968200683594	454.291931152344	782.7232055664064	824.7150878906252	499.8833312988284	901.9933471679689	801.9155883789065	464.5775146484377	823.3735961914064	762.7908325195314	509.2705993652346	
